<svg xmlns="http://www.w3.org/2000/svg" width="26" height="32" viewBox="0 0 26 32">
  <path id="Icon_metro-android" data-name="Icon metro-android" d="M28.642,13.928a1.938,1.938,0,0,0-1.857,2v8a1.862,1.862,0,1,0,3.714,0v-8A1.938,1.938,0,0,0,28.642,13.928Zm-22.286,0a1.938,1.938,0,0,0-1.857,2v8a1.938,1.938,0,0,0,1.857,2,1.938,1.938,0,0,0,1.857-2v-8A1.938,1.938,0,0,0,6.356,13.928Zm2.786,11a2.9,2.9,0,0,0,2.786,3v4a1.938,1.938,0,0,0,1.857,2,1.938,1.938,0,0,0,1.857-2v-4h3.714v4a1.862,1.862,0,1,0,3.714,0v-4a2.9,2.9,0,0,0,2.786-3v-11H9.142v11Zm16.663-13a9.1,9.1,0,0,0-3.761-6.551l.929-2a1.037,1.037,0,0,0-.415-1.342.9.9,0,0,0-1.246.447L20.378,4.49l-.242-.1a7.821,7.821,0,0,0-5.275,0l-.242.1-.933-2.009a.9.9,0,0,0-1.246-.447,1.037,1.037,0,0,0-.415,1.342l.929,2a9.1,9.1,0,0,0-3.761,6.551v1H25.856v-1H25.8Zm-11.091-2a1,1,0,0,1,0-2h0a1,1,0,0,1,0,2Zm5.571,0a1,1,0,0,1,0-2h0a1,1,0,0,1,0,2Z" transform="translate(-4.499 -1.928)" fill="#909eac"/>
</svg>
