<svg xmlns="http://www.w3.org/2000/svg" width="26" height="32" viewBox="0 0 26 32">
  <path id="Icon_awesome-apple" data-name="Icon awesome-apple" d="M22.019,19.16A6.71,6.71,0,0,1,25.473,13.1a7.357,7.357,0,0,0-5.851-3.186c-2.452-.2-5.132,1.479-6.113,1.479-1.036,0-3.412-1.407-5.277-1.407C4.377,10.051.281,13.166.281,19.5a18.354,18.354,0,0,0,.995,5.8c.884,2.622,4.075,9.052,7.4,8.944,1.741-.043,2.97-1.279,5.236-1.279,2.2,0,3.336,1.279,5.277,1.279,3.357-.05,6.244-5.894,7.087-8.523a7.127,7.127,0,0,1-4.262-6.565ZM18.11,7.43a6.89,6.89,0,0,0,1.658-5.18,7.246,7.246,0,0,0-4.69,2.493A6.975,6.975,0,0,0,13.309,9.88a5.734,5.734,0,0,0,4.8-2.45Z" transform="translate(-0.281 -2.25)" fill="#909eac"/>
</svg>
