<svg xmlns="http://www.w3.org/2000/svg" width="33.5" height="33.5" viewBox="0 0 33.5 33.5">
  <g id="Huge-icon_interface_outline_edit" data-name="Huge-icon/interface/outline/edit" transform="translate(-2.25 -2.25)">
    <path id="Vector" d="M19.017,1.151a3.931,3.931,0,0,1,5.559,0l2.78,2.78a3.931,3.931,0,0,1,0,5.559L13.305,23.542a3.931,3.931,0,0,1-2.224,1.112l-5.837.834A1.966,1.966,0,0,1,3.02,23.264l.834-5.837A3.931,3.931,0,0,1,4.966,15.2Z" transform="translate(6.492 3)" fill="none" stroke="#001514" stroke-linecap="round" stroke-width="1.5"/>
    <path id="Vector-2" data-name="Vector" d="M0,30.381H32m-4.11-19.3a8.973,8.973,0,0,1-5.812-2.925,9.085,9.085,0,0,1-2.906-5.849" transform="translate(3 4.619)" fill="none" stroke="#001514" stroke-linecap="round" stroke-width="1.5"/>
  </g>
</svg>
