<svg xmlns="http://www.w3.org/2000/svg" width="25.5" height="25.5" viewBox="0 0 25.5 25.5">
  <g id="Huge-icon_interface_outline_gift" data-name="Huge-icon/interface/outline/gift" transform="translate(0.75 0.75)">
    <path id="Vector" d="M0,6.436A2.418,2.418,0,0,1,2.4,4H21.6A2.418,2.418,0,0,1,24,6.436V7.654a2.418,2.418,0,0,1-2.4,2.436H2.4A2.418,2.418,0,0,1,0,7.654Z" transform="translate(0 0.776)" fill="none" stroke="#909eac" stroke-width="1.5"/>
    <path id="Vector-2" data-name="Vector" d="M10,4.872A4.872,4.872,0,0,1,14.872,0a2.436,2.436,0,1,1,0,4.872Z" transform="translate(1.923)" fill="none" stroke="#909eac" stroke-width="1.5"/>
    <path id="Vector-3" data-name="Vector" d="M6.436,4.872A2.436,2.436,0,0,1,6.436,0a4.872,4.872,0,0,1,4.872,4.872Z" transform="translate(0.769)" fill="none" stroke="#909eac" stroke-width="1.5"/>
    <path id="Vector-4" data-name="Vector" d="M2,9H21.128V19.962A2.414,2.414,0,0,1,18.737,22.4H4.391A2.414,2.414,0,0,1,2,19.962Z" transform="translate(0.436 1.602)" fill="none" stroke="#909eac" stroke-width="1.5"/>
    <path id="Vector-5" data-name="Vector" d="M10,4V23.487" transform="translate(2 0.513)" fill="none" stroke="#909eac" stroke-width="1.5"/>
  </g>
</svg>
