<svg xmlns="http://www.w3.org/2000/svg" width="21.619" height="25.061" viewBox="0 0 21.619 25.061">
  <g id="Group_1803" data-name="Group 1803" transform="translate(-3.5 -2.47)">
    <path id="Vector_773" data-name="Vector 773" d="M5.521,2.761,2.761,0,0,2.761" transform="translate(15.239 17.422) rotate(-90)" fill="none" stroke="#001514" stroke-linecap="round" stroke-linejoin="round" stroke-width="1"/>
    <g id="Group_1802" data-name="Group 1802">
      <path id="Vector" d="M0,4.321A2.551,2.551,0,0,1,1.229,2.166L3.99.439A2.772,2.772,0,0,1,8.282,2.594V21.406A2.772,2.772,0,0,1,3.99,23.561L1.229,21.834A2.551,2.551,0,0,1,0,19.679Z" transform="translate(4 3)" fill="none" stroke="#001514" stroke-linecap="round" stroke-width="1"/>
      <path id="Vector-2" data-name="Vector" d="M20.619,10.8H12.371M0,17.475m16.5,0a2.649,2.649,0,0,1-2.749,2.535h-5.5m0-17.743h5.5A2.649,2.649,0,0,1,16.5,4.8" transform="translate(4 3.862)" fill="none" stroke="#001514" stroke-linecap="round" stroke-width="1"/>
    </g>
  </g>
</svg>
