<svg xmlns="http://www.w3.org/2000/svg" width="23.5" height="25.513" viewBox="0 0 23.5 25.513">
  <g id="Huge-icon_ecommerce_outline_receipt" data-name="Huge-icon/ecommerce/outline/receipt" transform="translate(0.75 0.75)">
    <path id="Vector_1874" data-name="Vector 1874" d="M12.184,0H0" transform="translate(4.908 6.059)" fill="none" stroke="#909eac" stroke-linecap="round" stroke-linejoin="round" stroke-width="1.5"/>
    <path id="Vector_1875" data-name="Vector 1875" d="M12.184,0H0" transform="translate(4.908 10.905)" fill="none" stroke="#909eac" stroke-linecap="round" stroke-linejoin="round" stroke-width="1.5"/>
    <path id="Vector_1876" data-name="Vector 1876" d="M6.135,0H0" transform="translate(4.882 15.752)" fill="none" stroke="#909eac" stroke-linecap="round" stroke-linejoin="round" stroke-width="1.5"/>
    <path id="Vector_1877" data-name="Vector 1877" d="M22,2.423V20.786a2.442,2.442,0,0,1-3.272,2.28l-1.909-.681a2.464,2.464,0,0,0-1.831.07L12,23.787a2.464,2.464,0,0,1-2.006,0L7.012,22.455a2.464,2.464,0,0,0-1.831-.07l-1.909.681A2.442,2.442,0,0,1,0,20.786V2.423A2.434,2.434,0,0,1,2.444,0H19.556A2.434,2.434,0,0,1,22,2.423Z" transform="translate(0)" fill="none" stroke="#909eac" stroke-linecap="round" stroke-width="1.5"/>
  </g>
</svg>
