<svg xmlns="http://www.w3.org/2000/svg" xmlns:xlink="http://www.w3.org/1999/xlink" width="142" height="40" viewBox="0 0 142 40">
  <defs>
    <clipPath id="clip-path">
      <rect id="Rectangle_172" data-name="Rectangle 172" width="49.219" height="39.258" fill="#339989"/>
    </clipPath>
  </defs>
  <g id="logo" transform="translate(0 -7)">
    <path id="Path_85" data-name="Path 85" d="M73.269,41.154a13.942,13.942,0,0,1-5.119-.866,6.8,6.8,0,0,1-3.426-2.717,9.182,9.182,0,0,1-1.221-5.04,18.85,18.85,0,0,1,1.024-6.143,22.53,22.53,0,0,1,7.245-10.2,20.668,20.668,0,0,1,5.434-3.071,16.993,16.993,0,0,1,6.064-1.1A12.055,12.055,0,0,1,88.98,13.2a7.377,7.377,0,0,1,3.229,3.229,9.527,9.527,0,0,1,1.063,4.528,17.366,17.366,0,0,1-1.614,7.009A25.477,25.477,0,0,1,87.326,34.7a20.023,20.023,0,0,1-6.261,4.725A17.51,17.51,0,0,1,73.269,41.154Zm3.583-2.087a13.454,13.454,0,0,0,4.568-2.323,21.191,21.191,0,0,0,4.056-4.056,21.557,21.557,0,0,0,2.874-4.961A19.538,19.538,0,0,0,90,20.245a6.985,6.985,0,0,0-.079-1.063q-.039-.512-.118-.984A4.731,4.731,0,0,0,87.8,14.812a6.548,6.548,0,0,0-3.544-.984,11.466,11.466,0,0,0-4.174.827,13.852,13.852,0,0,0-3.662,1.969,23.961,23.961,0,0,0-3.5,3.426,21.741,21.741,0,0,0-2.717,4.1,21.394,21.394,0,0,0-1.536,4.134,17.666,17.666,0,0,0-.551,4.292,10.428,10.428,0,0,0,.551,3.465,4.96,4.96,0,0,0,5.158,3.5A11.416,11.416,0,0,0,76.852,39.067ZM94.737,40.13a2.007,2.007,0,0,1-1.693-.945,5.007,5.007,0,0,1-.473-3.032,16.583,16.583,0,0,1,.394-2.205q.315-1.339.827-2.874.551-1.575,1.221-3.032A16.535,16.535,0,0,1,96.469,25.4a1.729,1.729,0,0,1,.866-.709,6.13,6.13,0,0,1,1.693-.158h1.89A21.5,21.5,0,0,0,99.5,26.9q-.748,1.418-1.378,2.835-.63,1.378-.984,2.323-.079.276-.315.984a14.842,14.842,0,0,0-.433,1.5,6.656,6.656,0,0,0-.2,1.536,2.2,2.2,0,0,0,.236,1.063.9.9,0,0,0,.866.433,2.58,2.58,0,0,0,1.614-.945,13.693,13.693,0,0,0,1.733-2.323q.866-1.418,1.693-2.953.866-1.575,1.536-2.914.709-1.378,1.181-2.126a9.744,9.744,0,0,1,1.26-1.575,2.059,2.059,0,0,1,1.536-.709q.315,0,.827.039h1.063a4.584,4.584,0,0,0,.748-.039,2.314,2.314,0,0,0-.551.63q-.315.473-.63.984-.276.473-.433.788-1.024,2.048-2.008,4.134a22.84,22.84,0,0,0-1.418,3.9,4.67,4.67,0,0,0-.2,1.221q0,1.181.788,1.181a3.06,3.06,0,0,0,1.575-.788,9.11,9.11,0,0,0,1.536-1.614,19.332,19.332,0,0,0,1.536-2.205q.709-1.181,1.221-2.166.157-.276.276-.276.236,0,.236.63a2.908,2.908,0,0,1-.118.748,2.475,2.475,0,0,1-.315.788q-.551.945-1.3,2.087-.748,1.1-1.536,2.205a17.9,17.9,0,0,1-1.457,1.614,12.067,12.067,0,0,1-1.929,1.575,3.431,3.431,0,0,1-1.929.669,2.257,2.257,0,0,1-1.024-.236,1.619,1.619,0,0,1-.787-.827,5.3,5.3,0,0,1-.394-2.244q0-.433.039-.906.039-.512.118-1.024a14.546,14.546,0,0,1-1.26,1.536q-.63.709-1.3,1.418a7.922,7.922,0,0,1-2.559,1.89A5.386,5.386,0,0,1,94.737,40.13Zm18.948,0a1.938,1.938,0,0,1-1.733-.906,2.976,2.976,0,0,1-.394-1.024,6.211,6.211,0,0,1-.118-1.221,10.148,10.148,0,0,1,.079-1.26q.079-.669.2-1.3.2-1.024.433-1.851.276-.866.551-1.654v-.039q-.315.591-.788,1.3-.473.669-.669.984-.276.433-.433.433t-.158-.354a3.92,3.92,0,0,1,.472-1.733q.315-.63.866-1.614.551-1.024,1.142-2.205t1.024-2.284h-2.638q-.2,0-.079-.315a1.967,1.967,0,0,1,.354-.591q.236-.315.354-.315h2.993q.433-1.024.984-2.205a18.045,18.045,0,0,1,1.3-2.205,7.931,7.931,0,0,1,1.614-1.733,2.973,2.973,0,0,1,1.851-.669h1.063a4.881,4.881,0,0,0,.827-.039,8.1,8.1,0,0,0-1.929,2.205,28.316,28.316,0,0,0-2.4,4.646h3.977q.118,0-.079.315a4.794,4.794,0,0,1-.512.591.761.761,0,0,1-.551.315H117.9q-.512,1.3-1.142,2.835-.591,1.536-1.1,3.032a22.8,22.8,0,0,0-.709,2.678,6.727,6.727,0,0,0-.157,1.378q0,1.5.945,1.5a2.7,2.7,0,0,0,1.5-.63,8.985,8.985,0,0,0,1.733-1.733,23.123,23.123,0,0,0,1.5-2.205q.748-1.181,1.26-2.166.158-.276.276-.276.236,0,.236.63a2.908,2.908,0,0,1-.118.748,2.474,2.474,0,0,1-.315.788q-.551.945-1.3,2.087-.748,1.1-1.536,2.205a17.9,17.9,0,0,1-1.457,1.614,10.755,10.755,0,0,1-1.89,1.575A3.431,3.431,0,0,1,113.685,40.13Z" transform="translate(-12.372 -0.901)" fill="#339989"/>
    <path id="Path_86" data-name="Path 86" d="M126.585,47.607a3.821,3.821,0,0,1-2.914-.94,2.948,2.948,0,0,1-.866-2.03,2.717,2.717,0,0,1,.315-1.278,1.747,1.747,0,0,1,.788-.865,1.673,1.673,0,0,1,.709-.188,1.29,1.29,0,0,1,.788.263.843.843,0,0,1,.354.714v.188l-.079.226a1.74,1.74,0,0,0-.433.564,2.3,2.3,0,0,0-.315.752.4.4,0,0,0-.039.188v.188a1.169,1.169,0,0,0,.315.827.95.95,0,0,0,.709.338,3.223,3.223,0,0,0,1.969-.714,8.4,8.4,0,0,0,1.733-1.8,18.272,18.272,0,0,0,1.457-2.143q.63-1.09,1.024-1.88,1.811-3.5,3.426-7.294,1.654-3.8,3.111-7.407h-1.1a5.437,5.437,0,0,0-1.5.226,2.013,2.013,0,0,0-1.181.978q-.63,1.166-1.378,2.482a28.424,28.424,0,0,1-1.614,2.632q-.158.263-.276.263-.2,0-.2-.564a2.415,2.415,0,0,1,.236-1.128,22.254,22.254,0,0,0,1.142-2.068q.591-1.166,1.063-2.218t.709-1.73a1.991,1.991,0,0,1,.394-.714,1.4,1.4,0,0,1,.945-.113l3.465.263q.473-1.2.906-2.331.473-1.166.906-2.218a32.97,32.97,0,0,1,2.087-4.174,10.486,10.486,0,0,1,2.914-3.234,7.139,7.139,0,0,1,4.292-1.278,5.757,5.757,0,0,1,2.481.414,2.836,2.836,0,0,1,1.5,1.692,2.4,2.4,0,0,1,.118.79,3.441,3.441,0,0,1-.394,1.542,2.215,2.215,0,0,1-1.063,1.09,1.262,1.262,0,0,1-.433.15,2.773,2.773,0,0,1-.433.038,1.592,1.592,0,0,1-.906-.263.851.851,0,0,1-.394-.752,1.2,1.2,0,0,1,.118-.489,2.524,2.524,0,0,0,.984-1.391,1.058,1.058,0,0,0,.039-.263.68.68,0,0,0,.039-.226,1.162,1.162,0,0,0-.591-1.09A1.038,1.038,0,0,0,151,11.4a2.086,2.086,0,0,0-.551-.075,3.037,3.037,0,0,0-2.323,1.166,14.539,14.539,0,0,0-2.284,3.384,44.791,44.791,0,0,0-1.851,4.1q-.788,2.068-1.417,3.685.906.038,2.244-.038,1.378-.075,2.874-.188t2.756-.188q1.3-.075,2.008-.075.748,0,.669.113a2.247,2.247,0,0,0-.551.6q-.315.451-.591.94-.276.451-.433.714-1.024,1.955-1.929,3.873a21.937,21.937,0,0,0-1.378,3.685,4.861,4.861,0,0,0-.118.6,4.354,4.354,0,0,0-.039.564q0,1.09.748,1.09a1.717,1.717,0,0,0,.669-.15,5.82,5.82,0,0,0,.906-.564,8.142,8.142,0,0,0,1.575-1.542,25.087,25.087,0,0,0,1.5-2.068q.709-1.128,1.221-2.068.2-.3.276-.3.236,0,.236.639a2.663,2.663,0,0,1-.118.714,2.384,2.384,0,0,1-.276.714q-.551.9-1.3,1.993t-1.536,2.106a14.489,14.489,0,0,1-1.457,1.579,11.973,11.973,0,0,1-1.929,1.5,3.892,3.892,0,0,1-1.969.6,2.258,2.258,0,0,1-.984-.226,1.582,1.582,0,0,1-.788-.79,4.308,4.308,0,0,1-.394-1.993,11.6,11.6,0,0,1,.394-2.858,23.559,23.559,0,0,1,1.024-3.083,26.472,26.472,0,0,1,1.339-2.82,14.3,14.3,0,0,1,1.339-2.106,16.528,16.528,0,0,1-2.4.489q-1.378.15-2.559.188-1.142.038-1.614,0l-1.142,3.121q-.551,1.5-1.339,3.5-.748,1.993-1.733,4.174a42.619,42.619,0,0,1-2.205,4.174,24.85,24.85,0,0,1-2.6,3.685,11.718,11.718,0,0,1-2.993,2.67A6.307,6.307,0,0,1,126.585,47.607Zm25.791-26.245a1.1,1.1,0,0,1-.709.376q-.473,0-.473-.677a3.193,3.193,0,0,1,.512-1.429,8.226,8.226,0,0,1,1.26-1.73,3.388,3.388,0,0,1,1.5-1.015.8.8,0,0,1,.788.263,2.433,2.433,0,0,1,.63.865,1.861,1.861,0,0,1,.276.9q0,.489-.315.526a5.959,5.959,0,0,0-1.3.526,9.082,9.082,0,0,0-1.3.752A5.9,5.9,0,0,0,152.376,21.362Zm4.149,17.146a1.964,1.964,0,0,1-1.733-.865,2.767,2.767,0,0,1-.394-.978,5.673,5.673,0,0,1-.118-1.166,9.26,9.26,0,0,1,.079-1.2q.079-.639.2-1.241.2-.978.433-1.767.276-.827.551-1.579v-.038q-.315.564-.788,1.241-.472.639-.669.94-.276.414-.433.414t-.157-.338a3.613,3.613,0,0,1,.472-1.654q.315-.6.866-1.542.551-.978,1.142-2.106T157,24.446H154.36q-.2,0-.079-.3a1.863,1.863,0,0,1,.354-.564q.236-.3.354-.3h2.993q.433-.978.984-2.106a17.074,17.074,0,0,1,1.3-2.106,7.727,7.727,0,0,1,1.614-1.654,3.061,3.061,0,0,1,1.851-.639h1.063a5.108,5.108,0,0,0,.827-.038,7.866,7.866,0,0,0-1.929,2.106,26.629,26.629,0,0,0-2.4,4.437h3.977q.118,0-.079.3a4.648,4.648,0,0,1-.512.564.771.771,0,0,1-.551.3h-3.386q-.512,1.241-1.142,2.707-.591,1.466-1.1,2.9a20.985,20.985,0,0,0-.709,2.557,6.146,6.146,0,0,0-.158,1.316q0,1.429.945,1.429a2.775,2.775,0,0,0,1.5-.6,8.8,8.8,0,0,0,1.733-1.654,22.059,22.059,0,0,0,1.5-2.106q.748-1.128,1.26-2.068.158-.263.276-.263.236,0,.236.6a2.661,2.661,0,0,1-.118.714,2.3,2.3,0,0,1-.315.752q-.551.9-1.3,1.993-.748,1.053-1.536,2.106a17.391,17.391,0,0,1-1.457,1.542,10.657,10.657,0,0,1-1.89,1.5A3.538,3.538,0,0,1,156.525,38.508Z" transform="translate(-23.621 -0.607)" fill="#339989"/>
    <g id="Group_956" data-name="Group 956" transform="translate(0 7)" clip-path="url(#clip-path)">
      <path id="Path_87" data-name="Path 87" d="M41.816,9.441a2.316,2.316,0,0,0-.789-1.519,2.518,2.518,0,0,0-1.652-.615H7.255a2.333,2.333,0,0,0-.949.178,2.244,2.244,0,0,0-.783.544,2.126,2.126,0,0,0-.471.809,2.061,2.061,0,0,0-.072.923C6.22,20.276,14.166,43.267.488,46.084H6.855a36.45,36.45,0,0,0,14.166-2.857,35.1,35.1,0,0,0,11.757-8.085A33.318,33.318,0,0,0,40.126,23.2,32.252,32.252,0,0,0,41.816,9.441Z" transform="translate(-0.088 -7.066)" fill="#339989"/>
      <path id="Path_88" data-name="Path 88" d="M49.826,10.075C50.995,20.38,46.037,30.195,39.8,36.751a36.825,36.825,0,0,1-6.665,5.481c10.88-5.5,20.641-16.071,21.631-28.816Z" transform="translate(-5.954 -7.661)" fill="#339989"/>
      <path id="Path_89" data-name="Path 89" d="M21.005,12.843a1.975,1.975,0,0,1-.359,1.131,2.11,2.11,0,0,1-.955.75,2.216,2.216,0,0,1-1.229.116,2.159,2.159,0,0,1-1.089-.557,2.011,2.011,0,0,1-.582-1.043,1.956,1.956,0,0,1,.121-1.177,2.059,2.059,0,0,1,.784-.914,2.2,2.2,0,0,1,2.687.253A1.994,1.994,0,0,1,21.005,12.843Z" transform="translate(-3.01 -7.818)" fill="#fff"/>
      <path id="Path_90" data-name="Path 90" d="M38.73,12.843a1.975,1.975,0,0,1-.359,1.131,2.11,2.11,0,0,1-.955.75,2.216,2.216,0,0,1-1.229.116,2.159,2.159,0,0,1-1.089-.557,2.011,2.011,0,0,1-.582-1.043,1.956,1.956,0,0,1,.121-1.177,2.059,2.059,0,0,1,.784-.914,2.2,2.2,0,0,1,2.687.253A1.994,1.994,0,0,1,38.73,12.843Z" transform="translate(-6.194 -7.818)" fill="#fff"/>
      <path id="Path_91" data-name="Path 91" d="M18.469,13.669H19.9v10.5A6.133,6.133,0,0,0,21.822,28.6a6.756,6.756,0,0,0,9.259,0A6.133,6.133,0,0,0,33,24.165v-10.5h1.436v10.5a7.478,7.478,0,0,1-2.338,5.4,8.238,8.238,0,0,1-11.289,0,7.478,7.478,0,0,1-2.338-5.4Z" transform="translate(-3.318 -8.433)" fill="#fff"/>
    </g>
  </g>
</svg>
