<svg xmlns="http://www.w3.org/2000/svg" xmlns:xlink="http://www.w3.org/1999/xlink" width="211" height="60" viewBox="0 0 211 60">
  <defs>
    <clipPath id="clip-path">
      <rect id="Rectangle_172" data-name="Rectangle 172" width="73.156" height="58.898" fill="#909eac"/>
    </clipPath>
  </defs>
  <g id="logo" transform="translate(0 -7)">
    <path id="Path_85" data-name="Path 85" d="M78.018,55.324a20.722,20.722,0,0,1-7.608-1.288A10.1,10.1,0,0,1,65.318,50,13.647,13.647,0,0,1,63.5,42.507a28.017,28.017,0,0,1,1.522-9.13A33.487,33.487,0,0,1,75.794,18.22a30.72,30.72,0,0,1,8.076-4.565,25.258,25.258,0,0,1,9.013-1.639,17.918,17.918,0,0,1,8.486,1.756,10.965,10.965,0,0,1,4.8,4.8,14.161,14.161,0,0,1,1.58,6.73,25.812,25.812,0,0,1-2.4,10.417,37.867,37.867,0,0,1-6.438,10.008,29.761,29.761,0,0,1-9.305,7.023A26.025,26.025,0,0,1,78.018,55.324Zm5.326-3.1a20,20,0,0,0,6.789-3.453,31.5,31.5,0,0,0,6.028-6.028,32.04,32.04,0,0,0,4.272-7.374,29.039,29.039,0,0,0,2.458-11.12,10.382,10.382,0,0,0-.117-1.58q-.058-.761-.176-1.463a7.032,7.032,0,0,0-2.985-5.033,9.733,9.733,0,0,0-5.267-1.463,17.042,17.042,0,0,0-6.2,1.229A20.588,20.588,0,0,0,82.7,18.863a35.613,35.613,0,0,0-5.209,5.092,32.315,32.315,0,0,0-4.038,6.087,31.8,31.8,0,0,0-2.282,6.145,26.257,26.257,0,0,0-.819,6.379,15.5,15.5,0,0,0,.819,5.15,7.373,7.373,0,0,0,7.667,5.209A16.968,16.968,0,0,0,83.344,52.222Zm26.582,1.58a2.982,2.982,0,0,1-2.517-1.4,7.442,7.442,0,0,1-.7-4.506,24.65,24.65,0,0,1,.585-3.277q.468-1.99,1.229-4.272.819-2.341,1.814-4.506a24.578,24.578,0,0,1,2.165-3.921,2.571,2.571,0,0,1,1.288-1.053,9.111,9.111,0,0,1,2.517-.234h2.809a31.952,31.952,0,0,0-2.107,3.511q-1.112,2.107-2.048,4.214-.936,2.048-1.463,3.453-.117.41-.468,1.463a22.062,22.062,0,0,0-.644,2.224,9.893,9.893,0,0,0-.293,2.282,3.263,3.263,0,0,0,.351,1.58A1.335,1.335,0,0,0,113.73,50a3.835,3.835,0,0,0,2.4-1.4,20.352,20.352,0,0,0,2.575-3.453q1.288-2.107,2.517-4.389,1.288-2.341,2.282-4.331,1.053-2.048,1.756-3.16a14.482,14.482,0,0,1,1.873-2.341,3.06,3.06,0,0,1,2.282-1.053q.468,0,1.229.059h1.58a6.814,6.814,0,0,0,1.112-.059,3.439,3.439,0,0,0-.819.936q-.468.7-.936,1.463-.41.7-.644,1.17-1.522,3.043-2.985,6.145a33.949,33.949,0,0,0-2.107,5.794,6.941,6.941,0,0,0-.293,1.814q0,1.756,1.171,1.756a4.548,4.548,0,0,0,2.341-1.17,13.541,13.541,0,0,0,2.282-2.4,28.733,28.733,0,0,0,2.282-3.277q1.053-1.756,1.814-3.219.234-.41.41-.41.351,0,.351.936a4.323,4.323,0,0,1-.176,1.112,3.679,3.679,0,0,1-.468,1.171q-.819,1.4-1.931,3.1-1.112,1.639-2.282,3.277a26.6,26.6,0,0,1-2.165,2.4,17.935,17.935,0,0,1-2.868,2.341,5.1,5.1,0,0,1-2.868.995,3.355,3.355,0,0,1-1.522-.351,2.407,2.407,0,0,1-1.17-1.229,7.87,7.87,0,0,1-.585-3.336q0-.644.059-1.346.059-.761.176-1.522a21.621,21.621,0,0,1-1.873,2.282q-.936,1.053-1.931,2.107a11.774,11.774,0,0,1-3.8,2.809A8,8,0,0,1,109.926,53.8Zm28.163,0a2.88,2.88,0,0,1-2.575-1.346,4.423,4.423,0,0,1-.585-1.522,9.231,9.231,0,0,1-.176-1.814,15.085,15.085,0,0,1,.117-1.873q.117-.995.293-1.931.293-1.522.644-2.751.41-1.288.819-2.458v-.059q-.468.878-1.171,1.931-.7.995-.995,1.463-.41.644-.644.644t-.234-.527a5.827,5.827,0,0,1,.7-2.575q.468-.936,1.288-2.4.819-1.522,1.7-3.277t1.522-3.394H134.87q-.293,0-.117-.468a2.923,2.923,0,0,1,.527-.878q.351-.468.527-.468h4.448q.644-1.522,1.463-3.277a26.821,26.821,0,0,1,1.931-3.277,11.788,11.788,0,0,1,2.4-2.575,4.419,4.419,0,0,1,2.751-.995h1.58a7.255,7.255,0,0,0,1.229-.059,12.038,12.038,0,0,0-2.868,3.277,42.085,42.085,0,0,0-3.57,6.906h5.911q.176,0-.117.468a7.124,7.124,0,0,1-.761.878,1.131,1.131,0,0,1-.819.468h-5.033q-.761,1.931-1.7,4.214-.878,2.282-1.639,4.506a33.894,33.894,0,0,0-1.053,3.98,10,10,0,0,0-.234,2.048q0,2.224,1.4,2.224a4.019,4.019,0,0,0,2.224-.936,13.354,13.354,0,0,0,2.575-2.575,34.369,34.369,0,0,0,2.224-3.277q1.112-1.756,1.873-3.219.234-.41.41-.41.351,0,.351.936a4.322,4.322,0,0,1-.176,1.112,3.678,3.678,0,0,1-.468,1.171q-.819,1.4-1.931,3.1-1.112,1.639-2.282,3.277a26.61,26.61,0,0,1-2.165,2.4,15.985,15.985,0,0,1-2.809,2.341A5.1,5.1,0,0,1,138.089,53.8Z" transform="translate(12.459 1.1)" fill="#001514"/>
    <path id="Path_86" data-name="Path 86" d="M128.423,66.259q-3.043,0-4.331-1.411a4.448,4.448,0,0,1-1.288-3.048,4.111,4.111,0,0,1,.468-1.919,2.613,2.613,0,0,1,1.171-1.3A2.468,2.468,0,0,1,125.5,58.3a1.9,1.9,0,0,1,1.171.4,1.27,1.27,0,0,1,.527,1.072v.282l-.117.339a2.608,2.608,0,0,0-.644.847,3.475,3.475,0,0,0-.468,1.129.609.609,0,0,0-.059.282v.282a1.765,1.765,0,0,0,.468,1.242,1.406,1.406,0,0,0,1.053.508,4.761,4.761,0,0,0,2.926-1.072A12.563,12.563,0,0,0,132.93,60.9,27.44,27.44,0,0,0,135.1,57.68q.936-1.637,1.522-2.822,2.692-5.249,5.092-10.949,2.458-5.7,4.623-11.118h-1.639a8.007,8.007,0,0,0-2.224.339,3,3,0,0,0-1.756,1.467q-.936,1.75-2.048,3.725a42.745,42.745,0,0,1-2.4,3.951q-.234.4-.41.4-.293,0-.293-.847a3.656,3.656,0,0,1,.351-1.693,33.5,33.5,0,0,0,1.7-3.1q.878-1.75,1.58-3.33t1.053-2.6a3,3,0,0,1,.585-1.072,2.056,2.056,0,0,1,1.4-.169l5.15.4q.7-1.806,1.346-3.5.7-1.75,1.346-3.33a49.689,49.689,0,0,1,3.1-6.265A15.686,15.686,0,0,1,157.51,12.3a10.538,10.538,0,0,1,6.379-1.919,8.482,8.482,0,0,1,3.687.621,4.243,4.243,0,0,1,2.224,2.54,3.629,3.629,0,0,1,.176,1.185,5.206,5.206,0,0,1-.585,2.314,3.309,3.309,0,0,1-1.58,1.637,1.864,1.864,0,0,1-.644.226,4.082,4.082,0,0,1-.644.056,2.349,2.349,0,0,1-1.346-.4,1.281,1.281,0,0,1-.585-1.129,1.818,1.818,0,0,1,.176-.734,3.787,3.787,0,0,0,1.463-2.088,1.6,1.6,0,0,0,.059-.4,1.03,1.03,0,0,0,.059-.339,1.748,1.748,0,0,0-.878-1.637,1.535,1.535,0,0,0-.761-.339,3.073,3.073,0,0,0-.819-.113,4.5,4.5,0,0,0-3.453,1.75,21.836,21.836,0,0,0-3.394,5.079q-1.522,2.991-2.751,6.152-1.17,3.1-2.107,5.531,1.346.056,3.336-.056,2.048-.113,4.272-.282t4.1-.282q1.931-.113,2.985-.113,1.112,0,.995.169a3.359,3.359,0,0,0-.819.9q-.468.677-.878,1.411-.41.677-.644,1.072-1.522,2.935-2.868,5.813a33.134,33.134,0,0,0-2.048,5.531,7.352,7.352,0,0,0-.176.9,6.6,6.6,0,0,0-.059.847q0,1.637,1.112,1.637a2.531,2.531,0,0,0,.995-.226,8.635,8.635,0,0,0,1.346-.847,12.16,12.16,0,0,0,2.341-2.314,37.649,37.649,0,0,0,2.224-3.1q1.053-1.693,1.814-3.1.293-.452.41-.452.351,0,.351.959a4.033,4.033,0,0,1-.176,1.072,3.6,3.6,0,0,1-.41,1.072q-.819,1.355-1.931,2.991t-2.282,3.161a21.668,21.668,0,0,1-2.165,2.37,17.82,17.82,0,0,1-2.868,2.258,5.743,5.743,0,0,1-2.926.9,3.329,3.329,0,0,1-1.463-.339,2.362,2.362,0,0,1-1.171-1.185,6.521,6.521,0,0,1-.585-2.991,17.572,17.572,0,0,1,.585-4.289,35.6,35.6,0,0,1,1.522-4.628,39.912,39.912,0,0,1,1.99-4.233,21.5,21.5,0,0,1,1.99-3.161,24.355,24.355,0,0,1-3.57.734q-2.048.226-3.8.282-1.7.056-2.4,0l-1.7,4.684q-.819,2.258-1.99,5.249-1.112,2.991-2.575,6.265a64.193,64.193,0,0,1-3.277,6.265,37.305,37.305,0,0,1-3.863,5.531,17.474,17.474,0,0,1-4.448,4.007A9.307,9.307,0,0,1,128.423,66.259Zm38.334-39.394a1.634,1.634,0,0,1-1.053.564q-.7,0-.7-1.016a4.825,4.825,0,0,1,.761-2.145,12.343,12.343,0,0,1,1.873-2.6,5.033,5.033,0,0,1,2.224-1.524,1.176,1.176,0,0,1,1.171.4,3.65,3.65,0,0,1,.936,1.3,2.814,2.814,0,0,1,.41,1.355q0,.734-.468.79a8.807,8.807,0,0,0-1.931.79,13.466,13.466,0,0,0-1.931,1.129A8.773,8.773,0,0,0,166.757,26.865ZM172.924,52.6a2.911,2.911,0,0,1-2.575-1.3,4.177,4.177,0,0,1-.585-1.467,8.6,8.6,0,0,1-.176-1.75,14.036,14.036,0,0,1,.117-1.806q.117-.959.293-1.862.293-1.467.644-2.653.41-1.242.819-2.37v-.056q-.468.847-1.171,1.862-.7.959-.995,1.411-.41.621-.644.621t-.234-.508a5.464,5.464,0,0,1,.7-2.483q.468-.9,1.288-2.314.819-1.467,1.7-3.161t1.522-3.273h-3.921q-.293,0-.117-.452a2.8,2.8,0,0,1,.527-.847q.351-.452.527-.452h4.448q.644-1.467,1.463-3.161a25.675,25.675,0,0,1,1.931-3.161,11.547,11.547,0,0,1,2.4-2.483,4.521,4.521,0,0,1,2.751-.959h1.58a7.518,7.518,0,0,0,1.229-.056,11.761,11.761,0,0,0-2.868,3.161,40.093,40.093,0,0,0-3.57,6.66h5.911q.176,0-.117.452a6.952,6.952,0,0,1-.761.847,1.142,1.142,0,0,1-.819.452h-5.033q-.761,1.862-1.7,4.064-.878,2.2-1.639,4.346A31.745,31.745,0,0,0,174.8,43.74a9.313,9.313,0,0,0-.234,1.975q0,2.145,1.4,2.145a4.1,4.1,0,0,0,2.224-.9,13.128,13.128,0,0,0,2.575-2.483,33.111,33.111,0,0,0,2.224-3.161q1.112-1.693,1.873-3.1.234-.4.41-.4.351,0,.351.9a4.031,4.031,0,0,1-.176,1.072,3.476,3.476,0,0,1-.468,1.129q-.819,1.355-1.931,2.991-1.112,1.58-2.282,3.161a26,26,0,0,1-2.165,2.314,15.866,15.866,0,0,1-2.809,2.258A5.223,5.223,0,0,1,172.924,52.6Z" transform="translate(24.557 0.741)" fill="#001514"/>
    <g id="Group_956" data-name="Group 956" transform="translate(0 7)" clip-path="url(#clip-path)">
      <path id="Path_87" data-name="Path 87" d="M61.916,10.509A3.485,3.485,0,0,0,60.743,8.23a3.722,3.722,0,0,0-2.455-.923H10.546a3.44,3.44,0,0,0-1.411.267,3.336,3.336,0,0,0-1.164.816A3.2,3.2,0,0,0,7.27,9.6a3.12,3.12,0,0,0-.107,1.385C9.007,26.765,20.819,61.257.488,65.483H9.952A53.742,53.742,0,0,0,31.007,61.2a52.166,52.166,0,0,0,17.474-12.13A50.066,50.066,0,0,0,59.4,31.155,48.809,48.809,0,0,0,61.916,10.509Z" transform="translate(0.107 -6.946)" fill="#001514"/>
      <path id="Path_88" data-name="Path 88" d="M57.942,10.075C59.679,25.536,52.31,40.26,43.044,50.1a54.846,54.846,0,0,1-9.907,8.224c16.17-8.253,30.68-24.111,32.151-43.231Z" transform="translate(7.266 -6.453)" fill="#001514"/>
      <path id="Path_89" data-name="Path 89" d="M23.075,13.862a2.982,2.982,0,0,1-.533,1.7,3.141,3.141,0,0,1-1.419,1.125,3.265,3.265,0,0,1-1.827.174,3.2,3.2,0,0,1-1.619-.836,3.025,3.025,0,0,1-.866-1.564,2.959,2.959,0,0,1,.18-1.765,3.081,3.081,0,0,1,1.165-1.371,3.247,3.247,0,0,1,3.993.38A3,3,0,0,1,23.075,13.862Z" transform="translate(3.673 -6.323)" fill="#fff"/>
      <path id="Path_90" data-name="Path 90" d="M40.8,13.862a2.982,2.982,0,0,1-.533,1.7,3.141,3.141,0,0,1-1.419,1.125,3.265,3.265,0,0,1-1.827.174,3.2,3.2,0,0,1-1.619-.836,3.025,3.025,0,0,1-.866-1.564,2.959,2.959,0,0,1,.18-1.765,3.081,3.081,0,0,1,1.165-1.371,3.247,3.247,0,0,1,3.993.38A3,3,0,0,1,40.8,13.862Z" transform="translate(7.559 -6.323)" fill="#fff"/>
      <path id="Path_91" data-name="Path 91" d="M18.469,13.669H20.6V29.417a9.243,9.243,0,0,0,2.85,6.648,9.974,9.974,0,0,0,13.762,0,9.243,9.243,0,0,0,2.85-6.648V13.669H42.2V29.417a11.269,11.269,0,0,1-3.475,8.106,12.161,12.161,0,0,1-16.78,0,11.269,11.269,0,0,1-3.475-8.106Z" transform="translate(4.05 -5.813)" fill="#fff"/>
    </g>
  </g>
</svg>
