<svg xmlns="http://www.w3.org/2000/svg" xmlns:xlink="http://www.w3.org/1999/xlink" width="63" height="155" viewBox="0 0 63 155">
  <defs>
    <clipPath id="clip-path">
      <rect width="63" height="155" fill="none"/>
    </clipPath>
  </defs>
  <g id="Repeat_Grid_1" data-name="Repeat Grid 1" clip-path="url(#clip-path)">
    <g transform="translate(-1656 -277)">
      <circle id="Ellipse_2" data-name="Ellipse 2" cx="4" cy="4" r="4" transform="translate(1656 277)" fill="#fff" opacity="0.24"/>
    </g>
    <g transform="translate(-1643 -277)">
      <circle id="Ellipse_2-2" data-name="Ellipse 2" cx="4" cy="4" r="4" transform="translate(1656 277)" fill="#fff" opacity="0.24"/>
    </g>
    <g transform="translate(-1630 -277)">
      <circle id="Ellipse_2-3" data-name="Ellipse 2" cx="4" cy="4" r="4" transform="translate(1656 277)" fill="#fff" opacity="0.24"/>
    </g>
    <g transform="translate(-1617 -277)">
      <circle id="Ellipse_2-4" data-name="Ellipse 2" cx="4" cy="4" r="4" transform="translate(1656 277)" fill="#fff" opacity="0.24"/>
    </g>
    <g transform="translate(-1604 -277)">
      <circle id="Ellipse_2-5" data-name="Ellipse 2" cx="4" cy="4" r="4" transform="translate(1656 277)" fill="#fff" opacity="0.24"/>
    </g>
    <g transform="translate(-1656 -264)">
      <circle id="Ellipse_2-6" data-name="Ellipse 2" cx="4" cy="4" r="4" transform="translate(1656 277)" fill="#fff" opacity="0.24"/>
    </g>
    <g transform="translate(-1643 -264)">
      <circle id="Ellipse_2-7" data-name="Ellipse 2" cx="4" cy="4" r="4" transform="translate(1656 277)" fill="#fff" opacity="0.24"/>
    </g>
    <g transform="translate(-1630 -264)">
      <circle id="Ellipse_2-8" data-name="Ellipse 2" cx="4" cy="4" r="4" transform="translate(1656 277)" fill="#fff" opacity="0.24"/>
    </g>
    <g transform="translate(-1617 -264)">
      <circle id="Ellipse_2-9" data-name="Ellipse 2" cx="4" cy="4" r="4" transform="translate(1656 277)" fill="#fff" opacity="0.24"/>
    </g>
    <g transform="translate(-1604 -264)">
      <circle id="Ellipse_2-10" data-name="Ellipse 2" cx="4" cy="4" r="4" transform="translate(1656 277)" fill="#fff" opacity="0.24"/>
    </g>
    <g transform="translate(-1656 -251)">
      <circle id="Ellipse_2-11" data-name="Ellipse 2" cx="4" cy="4" r="4" transform="translate(1656 277)" fill="#fff" opacity="0.24"/>
    </g>
    <g transform="translate(-1643 -251)">
      <circle id="Ellipse_2-12" data-name="Ellipse 2" cx="4" cy="4" r="4" transform="translate(1656 277)" fill="#fff" opacity="0.24"/>
    </g>
    <g transform="translate(-1630 -251)">
      <circle id="Ellipse_2-13" data-name="Ellipse 2" cx="4" cy="4" r="4" transform="translate(1656 277)" fill="#fff" opacity="0.24"/>
    </g>
    <g transform="translate(-1617 -251)">
      <circle id="Ellipse_2-14" data-name="Ellipse 2" cx="4" cy="4" r="4" transform="translate(1656 277)" fill="#fff" opacity="0.24"/>
    </g>
    <g transform="translate(-1604 -251)">
      <circle id="Ellipse_2-15" data-name="Ellipse 2" cx="4" cy="4" r="4" transform="translate(1656 277)" fill="#fff" opacity="0.24"/>
    </g>
    <g transform="translate(-1656 -238)">
      <circle id="Ellipse_2-16" data-name="Ellipse 2" cx="4" cy="4" r="4" transform="translate(1656 277)" fill="#fff" opacity="0.24"/>
    </g>
    <g transform="translate(-1643 -238)">
      <circle id="Ellipse_2-17" data-name="Ellipse 2" cx="4" cy="4" r="4" transform="translate(1656 277)" fill="#fff" opacity="0.24"/>
    </g>
    <g transform="translate(-1630 -238)">
      <circle id="Ellipse_2-18" data-name="Ellipse 2" cx="4" cy="4" r="4" transform="translate(1656 277)" fill="#fff" opacity="0.24"/>
    </g>
    <g transform="translate(-1617 -238)">
      <circle id="Ellipse_2-19" data-name="Ellipse 2" cx="4" cy="4" r="4" transform="translate(1656 277)" fill="#fff" opacity="0.24"/>
    </g>
    <g transform="translate(-1604 -238)">
      <circle id="Ellipse_2-20" data-name="Ellipse 2" cx="4" cy="4" r="4" transform="translate(1656 277)" fill="#fff" opacity="0.24"/>
    </g>
    <g transform="translate(-1656 -225)">
      <circle id="Ellipse_2-21" data-name="Ellipse 2" cx="4" cy="4" r="4" transform="translate(1656 277)" fill="#fff" opacity="0.24"/>
    </g>
    <g transform="translate(-1643 -225)">
      <circle id="Ellipse_2-22" data-name="Ellipse 2" cx="4" cy="4" r="4" transform="translate(1656 277)" fill="#fff" opacity="0.24"/>
    </g>
    <g transform="translate(-1630 -225)">
      <circle id="Ellipse_2-23" data-name="Ellipse 2" cx="4" cy="4" r="4" transform="translate(1656 277)" fill="#fff" opacity="0.24"/>
    </g>
    <g transform="translate(-1617 -225)">
      <circle id="Ellipse_2-24" data-name="Ellipse 2" cx="4" cy="4" r="4" transform="translate(1656 277)" fill="#fff" opacity="0.24"/>
    </g>
    <g transform="translate(-1604 -225)">
      <circle id="Ellipse_2-25" data-name="Ellipse 2" cx="4" cy="4" r="4" transform="translate(1656 277)" fill="#fff" opacity="0.24"/>
    </g>
    <g transform="translate(-1656 -212)">
      <circle id="Ellipse_2-26" data-name="Ellipse 2" cx="4" cy="4" r="4" transform="translate(1656 277)" fill="#fff" opacity="0.24"/>
    </g>
    <g transform="translate(-1643 -212)">
      <circle id="Ellipse_2-27" data-name="Ellipse 2" cx="4" cy="4" r="4" transform="translate(1656 277)" fill="#fff" opacity="0.24"/>
    </g>
    <g transform="translate(-1630 -212)">
      <circle id="Ellipse_2-28" data-name="Ellipse 2" cx="4" cy="4" r="4" transform="translate(1656 277)" fill="#fff" opacity="0.24"/>
    </g>
    <g transform="translate(-1617 -212)">
      <circle id="Ellipse_2-29" data-name="Ellipse 2" cx="4" cy="4" r="4" transform="translate(1656 277)" fill="#fff" opacity="0.24"/>
    </g>
    <g transform="translate(-1604 -212)">
      <circle id="Ellipse_2-30" data-name="Ellipse 2" cx="4" cy="4" r="4" transform="translate(1656 277)" fill="#fff" opacity="0.24"/>
    </g>
    <g transform="translate(-1656 -199)">
      <circle id="Ellipse_2-31" data-name="Ellipse 2" cx="4" cy="4" r="4" transform="translate(1656 277)" fill="#fff" opacity="0.24"/>
    </g>
    <g transform="translate(-1643 -199)">
      <circle id="Ellipse_2-32" data-name="Ellipse 2" cx="4" cy="4" r="4" transform="translate(1656 277)" fill="#fff" opacity="0.24"/>
    </g>
    <g transform="translate(-1630 -199)">
      <circle id="Ellipse_2-33" data-name="Ellipse 2" cx="4" cy="4" r="4" transform="translate(1656 277)" fill="#fff" opacity="0.24"/>
    </g>
    <g transform="translate(-1617 -199)">
      <circle id="Ellipse_2-34" data-name="Ellipse 2" cx="4" cy="4" r="4" transform="translate(1656 277)" fill="#fff" opacity="0.24"/>
    </g>
    <g transform="translate(-1604 -199)">
      <circle id="Ellipse_2-35" data-name="Ellipse 2" cx="4" cy="4" r="4" transform="translate(1656 277)" fill="#fff" opacity="0.24"/>
    </g>
    <g transform="translate(-1656 -186)">
      <circle id="Ellipse_2-36" data-name="Ellipse 2" cx="4" cy="4" r="4" transform="translate(1656 277)" fill="#fff" opacity="0.24"/>
    </g>
    <g transform="translate(-1643 -186)">
      <circle id="Ellipse_2-37" data-name="Ellipse 2" cx="4" cy="4" r="4" transform="translate(1656 277)" fill="#fff" opacity="0.24"/>
    </g>
    <g transform="translate(-1630 -186)">
      <circle id="Ellipse_2-38" data-name="Ellipse 2" cx="4" cy="4" r="4" transform="translate(1656 277)" fill="#fff" opacity="0.24"/>
    </g>
    <g transform="translate(-1617 -186)">
      <circle id="Ellipse_2-39" data-name="Ellipse 2" cx="4" cy="4" r="4" transform="translate(1656 277)" fill="#fff" opacity="0.24"/>
    </g>
    <g transform="translate(-1604 -186)">
      <circle id="Ellipse_2-40" data-name="Ellipse 2" cx="4" cy="4" r="4" transform="translate(1656 277)" fill="#fff" opacity="0.24"/>
    </g>
    <g transform="translate(-1656 -173)">
      <circle id="Ellipse_2-41" data-name="Ellipse 2" cx="4" cy="4" r="4" transform="translate(1656 277)" fill="#fff" opacity="0.24"/>
    </g>
    <g transform="translate(-1643 -173)">
      <circle id="Ellipse_2-42" data-name="Ellipse 2" cx="4" cy="4" r="4" transform="translate(1656 277)" fill="#fff" opacity="0.24"/>
    </g>
    <g transform="translate(-1630 -173)">
      <circle id="Ellipse_2-43" data-name="Ellipse 2" cx="4" cy="4" r="4" transform="translate(1656 277)" fill="#fff" opacity="0.24"/>
    </g>
    <g transform="translate(-1617 -173)">
      <circle id="Ellipse_2-44" data-name="Ellipse 2" cx="4" cy="4" r="4" transform="translate(1656 277)" fill="#fff" opacity="0.24"/>
    </g>
    <g transform="translate(-1604 -173)">
      <circle id="Ellipse_2-45" data-name="Ellipse 2" cx="4" cy="4" r="4" transform="translate(1656 277)" fill="#fff" opacity="0.24"/>
    </g>
    <g transform="translate(-1656 -160)">
      <circle id="Ellipse_2-46" data-name="Ellipse 2" cx="4" cy="4" r="4" transform="translate(1656 277)" fill="#fff" opacity="0.24"/>
    </g>
    <g transform="translate(-1643 -160)">
      <circle id="Ellipse_2-47" data-name="Ellipse 2" cx="4" cy="4" r="4" transform="translate(1656 277)" fill="#fff" opacity="0.24"/>
    </g>
    <g transform="translate(-1630 -160)">
      <circle id="Ellipse_2-48" data-name="Ellipse 2" cx="4" cy="4" r="4" transform="translate(1656 277)" fill="#fff" opacity="0.24"/>
    </g>
    <g transform="translate(-1617 -160)">
      <circle id="Ellipse_2-49" data-name="Ellipse 2" cx="4" cy="4" r="4" transform="translate(1656 277)" fill="#fff" opacity="0.24"/>
    </g>
    <g transform="translate(-1604 -160)">
      <circle id="Ellipse_2-50" data-name="Ellipse 2" cx="4" cy="4" r="4" transform="translate(1656 277)" fill="#fff" opacity="0.24"/>
    </g>
    <g transform="translate(-1656 -147)">
      <circle id="Ellipse_2-51" data-name="Ellipse 2" cx="4" cy="4" r="4" transform="translate(1656 277)" fill="#fff" opacity="0.24"/>
    </g>
    <g transform="translate(-1643 -147)">
      <circle id="Ellipse_2-52" data-name="Ellipse 2" cx="4" cy="4" r="4" transform="translate(1656 277)" fill="#fff" opacity="0.24"/>
    </g>
    <g transform="translate(-1630 -147)">
      <circle id="Ellipse_2-53" data-name="Ellipse 2" cx="4" cy="4" r="4" transform="translate(1656 277)" fill="#fff" opacity="0.24"/>
    </g>
    <g transform="translate(-1617 -147)">
      <circle id="Ellipse_2-54" data-name="Ellipse 2" cx="4" cy="4" r="4" transform="translate(1656 277)" fill="#fff" opacity="0.24"/>
    </g>
    <g transform="translate(-1604 -147)">
      <circle id="Ellipse_2-55" data-name="Ellipse 2" cx="4" cy="4" r="4" transform="translate(1656 277)" fill="#fff" opacity="0.24"/>
    </g>
    <g transform="translate(-1656 -134)">
      <circle id="Ellipse_2-56" data-name="Ellipse 2" cx="4" cy="4" r="4" transform="translate(1656 277)" fill="#fff" opacity="0.24"/>
    </g>
    <g transform="translate(-1643 -134)">
      <circle id="Ellipse_2-57" data-name="Ellipse 2" cx="4" cy="4" r="4" transform="translate(1656 277)" fill="#fff" opacity="0.24"/>
    </g>
    <g transform="translate(-1630 -134)">
      <circle id="Ellipse_2-58" data-name="Ellipse 2" cx="4" cy="4" r="4" transform="translate(1656 277)" fill="#fff" opacity="0.24"/>
    </g>
    <g transform="translate(-1617 -134)">
      <circle id="Ellipse_2-59" data-name="Ellipse 2" cx="4" cy="4" r="4" transform="translate(1656 277)" fill="#fff" opacity="0.24"/>
    </g>
    <g transform="translate(-1604 -134)">
      <circle id="Ellipse_2-60" data-name="Ellipse 2" cx="4" cy="4" r="4" transform="translate(1656 277)" fill="#fff" opacity="0.24"/>
    </g>
  </g>
</svg>
